# xmcd
#
# Track frame offsets:
#	150
#	1432
#	15085
#	35478
#	61592
#	69842
#	79362
#	90165
#	95425
#	159880
#	172502
#	197545
#	270123
#
# Disc length: 3614 seconds
# Revision: 0
# Processed by: cddbd v1.5.2PL0 Copyright (c) Steve Scherf et al.
# Submitted via: dBpowerAMP V12.0
#
DISCID=780e1c0d
DTITLE=Hale Dwoskin - The Inner Circle Retreat 03 CD 13
DYEAR=2007
DGENRE=Speech
TTITLE0=Intro Music
TTITLE1=Sharing - A Shortcut to Releasing Fear
TTITLE2=Feeling Stuck in the Middle - How the Vortex Keeps Spinning
TTITLE3=Sharing - Childhood Memories - Headache
TTITLE4=Sharing - Wanting to Maintain Your Identity
TTITLE5=How to Relate to Your Children
TTITLE6=Finding the Right Church
TTITLE7=The Sedona Method Is Compatible with Any Religion
TTITLE8=Release on Giving and Receiving
TTITLE9=The Dynamics of Beliefs and Programs
TTITLE10=There Is No Center to the Spin - Releasing the Releaser
TTITLE11=Having Fun with Anger - Black Hole
TTITLE12=Concluding Music
EXTD=
EXTT0=
EXTT1=
EXTT2=
EXTT3=
EXTT4=
EXTT5=
EXTT6=
EXTT7=
EXTT8=
EXTT9=
EXTT10=
EXTT11=
EXTT12=
PLAYORDER=
